<svg width="20" height="20" viewBox="0 0 20 20" fill="none" xmlns="http://www.w3.org/2000/svg">
<path d="M17.9994 10.1367H9.8633V2.00062C9.8633 1.90062 9.78149 1.81881 9.68149 1.81881H9.0906C7.89678 1.81685 6.71435 2.05097 5.61135 2.5077C4.50835 2.96442 3.50654 3.63474 2.66356 4.48008C1.83338 5.30769 1.1719 6.28871 0.715898 7.36861C0.241381 8.48866 -0.00211181 9.69298 1.37976e-05 10.9094C-0.0019411 12.1032 0.232178 13.2856 0.688903 14.3887C1.14563 15.4917 1.81594 16.4935 2.66128 17.3364C3.49535 18.1705 4.46804 18.8273 5.54982 19.2841C6.66987 19.7586 7.87419 20.0021 9.0906 20C10.2844 20.0019 11.4669 19.7678 12.5699 19.3111C13.6729 18.8544 14.6747 18.1841 15.5177 17.3387C16.3517 16.5047 17.0085 15.532 17.4653 14.4502C17.9398 13.3301 18.1833 12.1258 18.1812 10.9094V10.3185C18.1812 10.2185 18.0994 10.1367 17.9994 10.1367ZM14.4018 16.2683C13.698 16.9665 12.8635 17.5191 11.9458 17.8942C11.0282 18.2694 10.0456 18.4598 9.05424 18.4546C7.05204 18.4455 5.17029 17.6614 3.75443 16.2456C2.32948 14.8206 1.54541 12.9252 1.54541 10.9094C1.54541 8.89356 2.32948 6.99817 3.75443 5.57322C4.99529 4.33236 6.59296 3.57556 8.3179 3.40284V11.6821H16.5972C16.4222 13.4161 15.6586 15.0229 14.4018 16.2683ZM19.9993 8.87311L19.9402 8.23222C19.747 6.13911 18.8175 4.16418 17.3221 2.67332C15.8257 1.17973 13.8548 0.255375 11.7496 0.0597791L11.1064 0.000690265C10.9996 -0.00840032 10.9087 0.073415 10.9087 0.180229V8.90947C10.9087 9.00946 10.9905 9.09128 11.0905 9.09128L19.8175 9.06855C19.9243 9.06855 20.0084 8.97765 19.9993 8.87311ZM12.4496 7.55042V1.71881C13.8812 2.01845 15.195 2.72745 16.2313 3.75965C17.2699 4.79598 17.9812 6.11411 18.2766 7.53452L12.4496 7.55042Z"/>
</svg>
